# xmcd
#
# Track frame offsets: 
#        150
#        17857
#        41205
#        62727
#        79452
#        103152
#        118112
#        135445
#        147875
#        162827
#        175927
#
# Disc length: 2575 seconds
#
# Revision: 0
# Processed by: cddbd v1.5.2PL0 Copyright (c) Steve Scherf et al.
# Submitted via: ExactAudioCopy v0.95b4
#
DISCID=9b0a0d0b
DTITLE=Perry Welsh and the Mighty Johnsons - She's Got That Stuff
DYEAR=1997
DGENRE=Blues
TTITLE0=Sun Is Shining
TTITLE1=Muder In The First Degree
TTITLE2=She's Got That Stuff
TTITLE3=I'm Ready
TTITLE4=Got You On My Mind
TTITLE5=Drink Ourselves Pretty
TTITLE6=My Younger Days
TTITLE7=Ain't That Just Like A Woman
TTITLE8=I Don't Know Why
TTITLE9=My Girl Josephine
TTITLE10=Hey Little Girl
EXTD=
EXTT0=
EXTT1=
EXTT2=
EXTT3=
EXTT4=
EXTT5=
EXTT6=
EXTT7=
EXTT8=
EXTT9=
EXTT10=
PLAYORDER=
